<svg xmlns="http://www.w3.org/2000/svg" xmlns:xlink="http://www.w3.org/1999/xlink" width="512" zoomAndPan="magnify" viewBox="0 0 384 383.999986" height="512" preserveAspectRatio="xMidYMid meet" version="1.0"><defs><g/><clipPath id="ce522e865f"><path d="M 5 30.71875 L 350 30.71875 L 350 334 L 5 334 Z M 5 30.71875 " clip-rule="nonzero"/></clipPath></defs><g clip-path="url(#ce522e865f)"><path fill="#121110" d="M 16.808594 330.613281 C 16.769531 330.597656 16.730469 330.582031 16.691406 330.566406 C 16.730469 330.582031 16.769531 330.597656 16.808594 330.609375 Z M 8.320312 325.785156 C 8.460938 325.90625 8.609375 326.023438 8.765625 326.148438 C 8.996094 326.332031 9.238281 326.519531 9.496094 326.707031 C 9.667969 326.832031 9.84375 326.957031 10.027344 327.085938 C 10.207031 327.214844 10.398438 327.339844 10.589844 327.46875 C 10.78125 327.597656 10.980469 327.722656 11.183594 327.851562 C 11.492188 328.042969 11.8125 328.238281 12.144531 328.425781 C 12.371094 328.550781 12.597656 328.679688 12.832031 328.808594 C 13.0625 328.929688 13.304688 329.058594 13.550781 329.183594 C 13.675781 329.246094 13.800781 329.304688 13.925781 329.367188 C 14.304688 329.554688 14.699219 329.738281 15.105469 329.917969 C 15.378906 330.035156 15.652344 330.152344 15.9375 330.269531 C 16.082031 330.328125 16.226562 330.386719 16.371094 330.445312 C 16.453125 330.476562 16.535156 330.507812 16.621094 330.539062 C 16.683594 330.5625 16.746094 330.589844 16.808594 330.613281 C 16.867188 330.636719 16.921875 330.660156 16.980469 330.679688 C 17.011719 330.691406 17.039062 330.699219 17.070312 330.710938 C 17.132812 330.734375 17.195312 330.757812 17.257812 330.78125 C 17.414062 330.835938 17.5625 330.890625 17.71875 330.945312 C 18.027344 331.054688 18.347656 331.160156 18.671875 331.257812 C 18.992188 331.359375 19.324219 331.464844 19.660156 331.558594 C 20.164062 331.710938 20.6875 331.847656 21.222656 331.980469 C 21.9375 332.15625 22.679688 332.316406 23.453125 332.46875 C 23.839844 332.539062 24.230469 332.609375 24.632812 332.671875 C 42.257812 335.566406 73.929688 330.40625 127.863281 293.511719 C 150.722656 277.878906 172.949219 261.246094 193.695312 242.871094 C 219.613281 219.910156 242.597656 192.035156 271.957031 173.339844 C 286.953125 163.792969 302.078125 154.335938 316.304688 143.648438 C 323.445312 138.28125 330.648438 132.441406 336.554688 125.566406 C 338.746094 123.015625 351.367188 106.828125 349.445312 101.914062 C 349.285156 101.511719 349.035156 101.1875 348.675781 100.953125 C 336.914062 86.273438 297.761719 38.449219 280.734375 30.855469 C 280.734375 30.855469 264.300781 37.058594 268.023438 59.691406 C 271.558594 81.222656 262.480469 102.558594 229.050781 102.558594 C 227.320312 102.558594 225.53125 102.503906 223.675781 102.386719 C 210.761719 101.574219 198.214844 100.144531 186.890625 99.5625 C 184.082031 88.828125 175.871094 80.09375 165.496094 82.429688 C 154.722656 84.859375 148.3125 98.984375 144.875 110.132812 C 143.414062 111.945312 142.171875 114.035156 141.183594 116.445312 C 141.011719 116.867188 140.835938 117.289062 140.660156 117.710938 C 138.652344 122.542969 136.5 127.328125 134.246094 132.074219 L 155.53125 142.164062 C 158.625 143.628906 159.945312 147.332031 158.476562 150.425781 C 157.417969 152.664062 155.191406 153.972656 152.871094 153.972656 C 151.980469 153.972656 151.074219 153.777344 150.214844 153.371094 L 128.738281 143.191406 C 125.363281 149.757812 121.820312 156.261719 118.191406 162.714844 L 136.125 171.21875 C 139.222656 172.691406 140.542969 176.386719 139.078125 179.480469 C 138.015625 181.71875 135.789062 183.027344 133.464844 183.027344 C 132.574219 183.027344 131.671875 182.835938 130.816406 182.429688 L 112.03125 173.527344 C 108.199219 180.164062 104.332031 186.753906 100.519531 193.3125 L 114.554688 199.96875 C 117.648438 201.433594 118.96875 205.132812 117.5 208.230469 C 116.441406 210.464844 114.214844 211.777344 111.890625 211.777344 C 111.003906 211.777344 110.097656 211.582031 109.242188 211.171875 L 94.25 204.070312 C 90.363281 210.652344 86.339844 217.179688 82.089844 223.550781 L 92.980469 228.714844 C 96.074219 230.179688 97.398438 233.878906 95.925781 236.972656 C 94.867188 239.210938 92.640625 240.519531 90.320312 240.519531 C 89.429688 240.519531 88.523438 240.324219 87.664062 239.921875 L 74.871094 233.855469 C 66.074219 245.8125 56.214844 256.914062 44.578125 266.324219 C 33.183594 275.539062 20.890625 281.34375 12.675781 294.03125 C 7.007812 302.789062 2.992188 314.292969 6.546875 324.144531 C 6.921875 324.53125 7.371094 324.96875 7.902344 325.433594 C 8.035156 325.546875 8.175781 325.664062 8.320312 325.785156 " fill-opacity="1" fill-rule="nonzero"/></g><path fill="#121110" d="M 366.082031 116.128906 C 362.039062 111.816406 358.042969 107.925781 353.578125 104.457031 C 353.160156 107.550781 351.332031 111.496094 347.941406 116.800781 C 344.703125 121.851562 340.933594 126.660156 339.613281 128.191406 C 333.230469 135.625 325.472656 141.804688 318.726562 146.871094 C 305.632812 156.703125 291.640625 165.601562 278.105469 174.203125 C 276.773438 175.050781 275.449219 175.894531 274.121094 176.742188 C 254.976562 188.933594 238.199219 205.492188 221.972656 221.503906 C 213.699219 229.667969 205.140625 238.113281 196.367188 245.886719 C 177.5 262.597656 155.835938 279.265625 130.140625 296.839844 C 108.785156 311.445312 89.175781 322.261719 71.859375 328.984375 C 57.496094 334.554688 44.546875 337.386719 33.378906 337.386719 C 20.058594 337.386719 11.746094 333.429688 6.941406 329.839844 C 13.167969 346.96875 30.550781 353.144531 49.164062 352.21875 C 89.214844 350.226562 130.0625 329.007812 162.90625 307.359375 C 188.113281 290.746094 207.269531 266.394531 232.375 249.460938 C 249.792969 237.710938 268.3125 227.742188 286.480469 217.230469 C 369.277344 169.320312 375.789062 146.527344 375.789062 146.527344 C 375.953125 145.828125 376.097656 145.121094 376.214844 144.414062 C 377.96875 133.738281 373.25 123.789062 366.082031 116.128906 " fill-opacity="1" fill-rule="nonzero"/><path fill="#121110" d="M 49.164062 352.21875 L 386.976562 352.21875 L 177.421875 346.179688 L 321.851562 340.300781 L 228.199219 340.300781 L 373.332031 324.921875 L 137.644531 321.300781 L 49.164062 352.21875 " fill-opacity="1" fill-rule="nonzero"/><g fill="#121110" fill-opacity="1"><g transform="translate(189.890618, 197.624984)"><g><path d="M 2.109375 0.078125 C 1.804688 0.078125 1.566406 -0.00390625 1.390625 -0.171875 C 1.222656 -0.335938 1.140625 -0.5625 1.140625 -0.84375 C 1.140625 -1.113281 1.222656 -1.332031 1.390625 -1.5 C 1.566406 -1.675781 1.804688 -1.765625 2.109375 -1.765625 C 2.410156 -1.765625 2.644531 -1.679688 2.8125 -1.515625 C 2.988281 -1.347656 3.078125 -1.128906 3.078125 -0.859375 C 3.078125 -0.578125 2.988281 -0.347656 2.8125 -0.171875 C 2.632812 -0.00390625 2.398438 0.078125 2.109375 0.078125 Z M 2.109375 0.078125 "/></g></g></g></svg>